<svg width="42" height="23" viewBox="0 0 42 23" fill="none" xmlns="http://www.w3.org/2000/svg">
<path d="M23.0344 12.8381C23.0344 15.0579 22.5659 16.2967 21.3327 18.1424C20.0994 19.988 18.6191 21.2165 16.5683 22.0659C14.5176 22.9154 11.7562 23.0294 9.57907 22.5964C7.40199 22.1633 5.4022 21.0944 3.83261 19.5248C2.26302 17.9552 1.19411 15.9554 0.761064 13.7784C0.328016 11.6013 0.550275 9.34465 1.39973 7.29389C2.24919 5.24313 3.6877 3.49029 5.53334 2.25708C7.37898 1.02386 9.54888 0.365627 11.7686 0.365628C11.7686 5.17076 7.26474 3.38805 5.53334 7.568C4.96368 8.94329 4.81462 10.4566 5.10504 11.9166C5.39545 13.3766 6.11228 14.7177 7.16489 15.7703C8.21749 16.8229 9.55859 17.5398 11.0186 17.8302C12.4786 18.1206 13.9919 17.9716 15.3672 17.4019C16.7425 16.8322 17.6866 15.8192 18.5137 14.5814C19.0451 13.7861 19.1771 13.1898 19.1771 11.5888L23.0344 12.8381Z" fill="#F5F5F5"/>
<path d="M19.1771 11.5888C19.1771 9.36905 19.6908 7.02451 20.924 5.17887C22.1572 3.33323 23.6959 2.00143 25.7467 1.15198C27.7974 0.302522 30.4864 0.148183 32.6635 0.581231C34.8405 1.01428 36.8403 2.08319 38.4099 3.65278C39.9795 5.22237 41.0484 7.22216 41.4815 9.39924C41.9145 11.5763 41.6923 13.8329 40.8428 15.8837C39.9933 17.9345 38.5548 19.6873 36.7092 20.9205C34.8635 22.1537 32.6936 22.812 30.4739 22.812C30.4739 18.0068 35.4254 19.9503 37.1568 15.7703C37.7264 14.3951 37.8755 12.8817 37.5851 11.4217C37.2947 9.96171 36.5778 8.6206 35.5252 7.568C34.4726 6.5154 33.1315 5.79856 31.6715 5.50815C30.2115 5.21774 28.6982 5.36679 27.3229 5.93645C25.9476 6.50612 24.7721 7.47081 23.9451 8.70854C23.1181 9.94627 23.0344 11.3495 23.0344 12.8381L19.1771 11.5888Z" fill="#F5F5F5"/>
<path d="M32.3855 12.4448C32.3855 13.573 31.4709 14.4876 30.3427 14.4876C29.2145 14.4876 28.2999 13.573 28.2999 12.4448C28.2999 11.3166 29.2145 10.402 30.3427 10.402C31.4709 10.402 32.3855 11.3166 32.3855 12.4448Z" fill="#F5F5F5"/>
</svg>
