<svg width="199" height="73"  viewBox="0 0 199 73" fill="none" xmlns="http://www.w3.org/2000/svg">
<path d="M26.3125 18.5699C27.6715 16.5315 28.351 14.629 28.351 12.8624C28.351 11.0957 27.8527 9.69148 26.8561 8.64962C25.8596 7.60776 24.5459 7.08682 22.9152 7.08682C21.2844 7.08682 19.9708 7.49451 18.9742 8.30988C17.9777 9.07995 17.4794 10.3257 17.4794 12.047C17.4794 13.723 18.6571 16.758 21.0126 21.1519C23.3682 25.5459 24.863 28.377 25.4972 29.6454C27.2185 33.088 28.0792 36.4175 28.0792 39.6336C28.0792 43.6652 26.607 46.9493 23.6626 49.486C20.7635 51.9774 17.3208 53.2231 13.3346 53.2231C9.39363 53.2231 6.2907 52.0001 4.02579 49.554C1.76088 47.0625 0.628419 44.1635 0.628419 40.8567C0.628419 34.7414 4.41082 29.6907 11.9756 25.7044C8.89535 19.6344 7.35521 15.3991 7.35521 12.9982C7.35521 9.64618 8.69151 6.81504 11.3641 4.50482C14.082 2.14932 17.3888 0.97156 21.2844 0.97156C25.2254 0.97156 28.2377 1.96812 30.3214 3.96124C32.4052 5.95437 33.447 8.49107 33.447 11.5714C33.447 13.6098 32.7675 15.9426 31.4086 18.5699H26.3125ZM8.51032 45.0694C9.73337 46.3831 11.2056 47.0399 12.9269 47.0399C14.6935 47.0399 16.0525 46.5416 17.0037 45.5451C18.0003 44.5032 18.4986 42.9857 18.4986 40.9926C18.4986 39.1806 17.7965 36.961 16.3922 34.3337C16.211 33.9713 15.8713 33.3145 15.373 32.3633C14.8747 31.3667 14.5123 30.6646 14.2858 30.2569C9.21244 32.8842 6.67574 36.191 6.67574 40.1772C6.67574 42.2156 7.28726 43.8464 8.51032 45.0694ZM52.6952 45.2053L54.326 30.053C54.326 28.83 54.0089 27.8108 53.3747 26.9954C52.7405 26.18 51.676 25.7724 50.1812 25.7724C48.7316 25.7724 47.4859 26.4292 46.4441 27.7428C45.4475 29.0112 44.8133 30.6193 44.5416 32.5671C42.9108 44.9788 42.0501 51.7283 41.9596 52.8154H32.7867L36.5238 20.8122C38.4263 20.3139 39.8758 20.0648 40.8724 20.0648C43.9074 20.0648 45.4928 21.1746 45.6287 23.3942C47.8483 21.2199 50.4983 20.1327 53.5786 20.1327C56.7041 20.1327 59.1502 20.9028 60.9169 22.4429C62.6835 23.9831 63.5668 25.9309 63.5668 28.2864C63.5668 28.9206 63.4309 30.121 63.1591 31.8876C62.1173 38.773 61.5964 42.7819 61.5964 43.9143C61.5964 45.998 62.2985 47.0399 63.7027 47.0399C66.783 47.0399 69.1159 43.8237 70.7013 37.3914C72.2414 39.0221 73.1701 40.3131 73.4871 41.2644C71.0863 49.2369 66.9189 53.2231 60.9848 53.2231C58.1763 53.2231 56.0926 52.3624 54.7337 50.6411C53.3747 48.9198 52.6952 47.1078 52.6952 45.2053ZM98.8013 53.1552C94.6338 53.1552 91.8706 51.7056 90.5117 48.8065C88.1562 51.7509 85.1212 53.2231 81.4067 53.2231C77.7376 53.2231 74.6346 51.9774 72.0979 49.486C69.6065 46.9946 68.3608 43.7105 68.3608 39.6336C68.3608 33.6996 70.1048 28.9659 73.5928 25.4326C77.0808 21.8994 81.4973 20.1327 86.8425 20.1327C86.9784 20.1327 87.1143 20.1327 87.2502 20.1327C89.5151 20.1327 91.5988 20.5178 93.5014 21.2878C94.7244 20.5178 96.1966 20.1327 97.918 20.1327C99.6846 20.1327 100.953 20.3592 101.723 20.8122C101.315 24.1643 100.885 27.471 100.432 30.7325C99.979 33.9487 99.6619 36.2363 99.4807 37.5952C99.0731 40.6755 98.8692 42.8951 98.8692 44.2541C98.8692 46.066 99.594 46.972 101.044 46.972C102.176 46.972 103.376 46.2245 104.645 44.7297C105.913 43.1895 107.023 40.7887 107.974 37.5273C109.288 38.705 110.194 40.0187 110.692 41.4682C109.378 45.7715 107.612 48.8065 105.392 50.5732C103.173 52.2945 100.976 53.1552 98.8013 53.1552ZM87.8617 25.4326C84.9626 25.4326 82.6524 26.5424 80.9311 28.762C79.2551 30.9364 78.2585 34.1978 77.9414 38.5465C77.8961 38.9542 77.8735 39.3392 77.8735 39.7016C77.8735 41.9212 78.3944 43.6878 79.4363 45.0015C80.5234 46.3151 81.905 46.972 83.5811 46.972C86.4348 46.972 88.5865 44.9562 90.0361 40.9246L91.6668 26.248C90.3531 25.7044 89.0848 25.4326 87.8617 25.4326ZM113.264 20.0648C116.208 20.0648 117.93 20.8122 118.428 22.307C120.557 20.8122 123.252 20.0648 126.514 20.0648C129.775 20.0648 132.584 21.4011 134.939 24.0737C137.295 26.7463 138.472 29.8719 138.472 33.4504C138.472 33.9487 138.45 34.4696 138.405 35.0132C137.906 40.9473 135.913 45.4771 132.425 48.6027C128.937 51.683 124.385 53.2231 118.768 53.2231C117.499 53.2231 116.118 53.0646 114.623 52.7475L112.449 71.433H103.548C106.447 46.4737 108.394 29.5321 109.391 20.6084C110.342 20.246 111.633 20.0648 113.264 20.0648ZM128.892 33.926C128.892 31.9329 128.439 30.1663 127.533 28.6262C126.627 27.086 125.223 26.3159 123.32 26.3159C120.738 26.3159 118.768 27.992 117.409 31.344C116.503 38.0482 115.982 41.9438 115.846 43.031C115.801 44.39 116.231 45.4092 117.137 46.0886C118.043 46.7681 119.153 47.1078 120.466 47.1078C122.777 47.1078 124.679 46.066 126.174 43.9823C127.986 41.4003 128.892 38.0482 128.892 33.926ZM150.859 53.2911C148.096 53.2911 145.922 52.521 144.336 50.9808C142.751 49.3954 141.958 47.2437 141.958 44.5258C141.958 43.8011 143.181 33.0427 145.627 12.2508C146.261 6.90563 147.96 3.53091 150.723 2.12666C151.992 1.44719 153.509 1.10745 155.276 1.10745C161.255 1.10745 164.245 3.87065 164.245 9.39704C164.245 9.85002 164.222 10.3257 164.177 10.8239C163.724 16.8939 159.919 23.0771 152.762 29.3736C152.535 31.5932 152.286 33.7449 152.014 35.8286C151.471 40.4943 151.199 43.0763 151.199 43.5746C151.199 45.9301 152.218 47.1078 154.256 47.1078C156.476 47.1078 158.537 45.8395 160.44 43.3028C162.387 40.7208 163.882 37.4367 164.924 33.4504C165.332 33.5863 165.898 33.9713 166.623 34.6055C167.348 35.1944 167.846 35.7153 168.118 36.1683C167.393 39.9281 165.762 43.5293 163.225 46.972C161.957 48.7386 160.349 50.1881 158.401 51.3206C156.182 52.6342 153.668 53.2911 150.859 53.2911ZM153.509 22.5788C157.676 18.0037 159.76 13.9042 159.76 10.2804C159.76 8.10604 158.945 7.01888 157.314 7.01888C156.272 7.10947 155.57 7.78895 155.208 9.0573C154.891 10.3256 154.574 12.3867 154.256 15.2405C153.985 18.0943 153.803 19.8609 153.713 20.5404L153.509 22.5788ZM174.21 72.9958C171.628 72.9958 169.409 72.2031 167.551 70.6177C165.694 69.0775 164.765 66.8126 164.765 63.8229C164.765 60.1537 166.623 56.5752 170.337 53.0872C167.71 52.8607 165.603 52.0001 164.018 50.5052C162.433 49.0104 161.64 46.904 161.64 44.1861C161.64 42.9178 161.798 41.0152 162.116 38.4785C162.433 35.9418 162.772 33.2013 163.135 30.2569C163.497 27.3125 163.882 24.1869 164.29 20.8801C165.694 20.3819 166.985 20.1327 168.163 20.1327C169.341 20.1327 170.224 20.178 170.813 20.2686C171.402 20.3592 171.968 20.699 172.511 21.2878C173.055 21.8767 173.327 22.7147 173.327 23.8019L171.085 41.1285C170.994 41.8532 170.949 42.3515 170.949 42.6233C170.949 45.2959 172.172 46.6322 174.618 46.6322C176.837 46.6322 178.649 45.5904 180.054 43.5066C180.19 42.4648 180.529 39.4751 181.073 34.5376C181.616 29.5548 182.069 25.6818 182.432 22.9186C182.839 22.0579 183.677 21.3784 184.946 20.8801C186.259 20.3819 187.324 20.1327 188.139 20.1327C189.589 20.1327 190.903 20.3139 192.08 20.6763L188.887 45.7489C194.187 46.7002 197.358 50.3467 198.399 56.6884C198.218 57.5491 197.358 58.908 195.817 60.7653C194.911 55.103 192.42 51.6603 188.343 50.4373L187.256 58.9307C186.758 63.0075 185.467 66.3596 183.383 68.9869C181.299 71.6595 178.242 72.9958 174.21 72.9958ZM170.065 62.5319C170.065 64.0268 170.428 65.1366 171.153 65.8613C171.877 66.5861 172.829 66.9485 174.006 66.9485C175.229 66.9485 176.158 66.4502 176.792 65.4536C177.426 64.4571 177.925 62.464 178.287 59.4743L179.17 52.0001C173.236 55.0803 170.201 58.591 170.065 62.5319Z" fill="#262626"/>
</svg>
